<svg width="35" height="35" viewBox="0 0 35 35" fill="none" xmlns="http://www.w3.org/2000/svg">
<path d="M28.1842 8.42582C29.1673 9.89712 29.1673 11.9453 29.1673 16.0416C29.1673 20.138 29.1673 22.1862 28.1842 23.6575C27.7586 24.2944 27.2118 24.8413 26.5748 25.2669C25.2895 26.1257 23.564 26.2343 20.4173 26.248V26.25L18.805 29.4746C18.2676 30.5494 16.7337 30.5494 16.1963 29.4746L14.584 26.25V26.248C11.4373 26.2343 9.7118 26.1257 8.42649 25.2669C7.78955 24.8413 7.24267 24.2944 6.81708 23.6575C5.83398 22.1862 5.83398 20.138 5.83398 16.0416C5.83398 11.9453 5.83398 9.89712 6.81708 8.42582C7.24267 7.78888 7.78955 7.242 8.42649 6.81641C9.8978 5.83331 11.946 5.83331 16.0423 5.83331H18.959C23.0553 5.83331 25.1035 5.83331 26.5748 6.81641C27.2118 7.242 27.7586 7.78888 28.1842 8.42582Z" stroke="black" stroke-opacity="0.67" stroke-width="2" stroke-linecap="round" stroke-linejoin="round"/>
<path d="M13.125 13.125L21.875 13.125" stroke="black" stroke-opacity="0.67" stroke-width="2" stroke-linecap="round" stroke-linejoin="round"/>
<path d="M13.125 18.9583H17.5" stroke="black" stroke-opacity="0.67" stroke-width="2" stroke-linecap="round" stroke-linejoin="round"/>
</svg>
