<svg width="35" height="35" viewBox="0 0 35 35" fill="none" xmlns="http://www.w3.org/2000/svg">
<path d="M7.29102 18.6077C7.29102 16.6277 7.29102 15.6376 7.69127 14.7674C8.09153 13.8972 8.84322 13.2528 10.3466 11.9642L11.8049 10.7142C14.5223 8.38509 15.8809 7.22052 17.4993 7.22052C19.1178 7.22052 20.4764 8.38509 23.1938 10.7142L24.6521 11.9642C26.1555 13.2528 26.9072 13.8972 27.3074 14.7674C27.7077 15.6376 27.7077 16.6277 27.7077 18.6077V24.7916C27.7077 27.5415 27.7077 28.9164 26.8534 29.7707C25.9991 30.625 24.6242 30.625 21.8743 30.625H13.1243C10.3745 30.625 8.99956 30.625 8.14529 29.7707C7.29102 28.9164 7.29102 27.5415 7.29102 24.7916V18.6077Z" stroke="black" stroke-opacity="0.67" stroke-width="2"/>
<path d="M21.1452 30.625V22.875C21.1452 22.3227 20.6975 21.875 20.1452 21.875H14.8535C14.3012 21.875 13.8535 22.3227 13.8535 22.875V30.625" stroke="black" stroke-opacity="0.67" stroke-width="2" stroke-linecap="round" stroke-linejoin="round"/>
</svg>
