<svg width="35" height="35" viewBox="0 0 35 35" fill="none" xmlns="http://www.w3.org/2000/svg">
<path fill-rule="evenodd" clip-rule="evenodd" d="M22.0808 4.55129C20.7967 3.81991 19.3186 3.39679 17.7513 3.37581C17.691 3.375 17.6232 3.375 17.5087 3.375H17.4995H17.4903C17.3758 3.375 17.308 3.375 17.2477 3.37581C12.754 3.43598 8.99339 6.80187 8.43733 11.2614C8.42987 11.3213 8.42238 11.3887 8.40973 11.5026L8.40872 11.5116L8.04151 14.8165C7.9467 15.6698 7.90578 16.027 7.83099 16.3705C7.72053 16.8778 7.55395 17.3713 7.33435 17.8418C7.18567 18.1603 7.00178 18.4692 6.56005 19.2054L5.3344 21.2482L5.29688 21.3107C4.92628 21.9282 4.59184 22.4855 4.39761 22.9538C4.1941 23.4445 4.02535 24.1148 4.40029 24.7771C4.77523 25.4393 5.43686 25.6395 5.96236 25.7174C6.46387 25.7918 7.11379 25.7918 7.83398 25.7917H7.834L7.90688 25.7917H27.0921L27.165 25.7917H27.165C27.8852 25.7918 28.5351 25.7918 29.0366 25.7174C29.5621 25.6395 30.2238 25.4393 30.5987 24.7771C30.9737 24.1148 30.8049 23.4445 30.6014 22.9538C30.4072 22.4855 30.0727 21.9282 29.7021 21.3107L29.6646 21.2482L28.439 19.2054C27.9972 18.4692 27.8133 18.1603 27.6647 17.8418C27.4451 17.3713 27.2785 16.8778 27.168 16.3705C27.0932 16.027 27.0523 15.6699 26.9575 14.8165L26.9365 14.6272C26.7111 14.6533 26.4819 14.6667 26.2495 14.6667C25.7894 14.6667 25.3416 14.6141 24.9117 14.5148L24.9697 15.0374L24.9761 15.0949C25.0627 15.874 25.1143 16.339 25.2138 16.796C25.3558 17.4483 25.57 18.0828 25.8523 18.6877C26.0501 19.1114 26.2908 19.5125 26.6941 20.1846L26.6941 20.1847L26.724 20.2344L27.9496 22.2772C28.3699 22.9776 28.6237 23.4058 28.754 23.72L28.7607 23.7364L28.7431 23.7391C28.4067 23.789 27.909 23.7917 27.0921 23.7917H7.90688C7.08999 23.7917 6.59234 23.789 6.25586 23.7391L6.2383 23.7364L6.24504 23.72C6.37535 23.4058 6.6291 22.9777 7.04939 22.2772L8.27503 20.2344L8.30483 20.1848C8.70816 19.5126 8.94887 19.1115 9.14666 18.6877C9.42901 18.0828 9.64318 17.4483 9.78521 16.796C9.8847 16.339 9.93635 15.8741 10.0229 15.095L10.0229 15.095L10.0293 15.0374L10.3965 11.7325C10.4104 11.6069 10.4164 11.5537 10.422 11.5089C10.8545 8.04034 13.7793 5.42243 17.2744 5.37563C17.3196 5.37502 17.3731 5.375 17.4995 5.375C17.6259 5.375 17.6794 5.37502 17.7246 5.37563C18.8714 5.39099 19.9569 5.68319 20.9131 6.19146C21.2074 5.57885 21.604 5.02474 22.0808 4.55129ZM24.4261 6.4734C23.8574 6.92949 23.4632 7.59429 23.3598 8.35163C23.924 9.15398 24.3251 10.083 24.5127 11.0934C24.9978 11.4536 25.5988 11.6667 26.2495 11.6667C26.3699 11.6667 26.4886 11.6594 26.6051 11.6452L26.5903 11.5116L26.5893 11.5025C26.5766 11.3887 26.5691 11.3213 26.5617 11.2614C26.3333 9.42986 25.5644 7.78277 24.4261 6.4734ZM28.8211 23.9293C28.8209 23.9291 28.8206 23.9266 28.8204 23.922C28.8212 23.9271 28.8213 23.9294 28.8211 23.9293ZM28.9571 23.689C28.957 23.6889 28.9546 23.6899 28.9505 23.6921C28.9535 23.6909 28.9554 23.69 28.9564 23.6895C28.957 23.6892 28.9572 23.689 28.9571 23.689ZM6.04185 23.689C6.04203 23.6889 6.0444 23.6899 6.04845 23.6921C6.0437 23.6902 6.04168 23.689 6.04185 23.689ZM6.17858 23.922C6.17845 23.9266 6.17807 23.9291 6.17791 23.9293C6.17775 23.9294 6.17782 23.927 6.17858 23.922Z" fill="black" fill-opacity="0.67"/>
<path d="M13.2741 25.761C13.5233 27.1564 14.0726 28.3894 14.8367 29.2689C15.6007 30.1483 16.5369 30.625 17.5 30.625C18.4631 30.625 19.3993 30.1483 20.1633 29.2689C20.9274 28.3894 21.4767 27.1564 21.7259 25.761" stroke="black" stroke-opacity="0.67" stroke-width="2" stroke-linecap="round"/>
<circle cx="26.2507" cy="8.75" r="2.91667" fill="black" fill-opacity="0.67"/>
<circle cx="26.2507" cy="8.75" r="3.41667" stroke="black" stroke-opacity="0.67"/>
</svg>
