<svg width="76" height="76" viewBox="0 0 76 76" fill="none" xmlns="http://www.w3.org/2000/svg">
<path d="M76 38C76 58.9868 58.9868 76 38 76C17.0132 76 0 58.9868 0 38C0 17.0132 17.0132 0 38 0C58.9868 0 76 17.0132 76 38Z" fill="#F0AB99"/>
<path d="M52.2802 38.88C52.3602 38.28 52.4002 37.66 52.4002 37C52.4002 36.36 52.3602 35.72 52.2602 35.12L56.3202 31.96C56.6802 31.68 56.7802 31.14 56.5602 30.74L52.7202 24.1C52.4802 23.66 51.9802 23.52 51.5402 23.66L46.7602 25.58C45.7602 24.82 44.7002 24.18 43.5202 23.7L42.8002 18.62C42.7202 18.14 42.3202 17.8 41.8402 17.8H34.1602C33.6802 17.8 33.3002 18.14 33.2202 18.62L32.5002 23.7C31.3202 24.18 30.2402 24.84 29.2602 25.58L24.4802 23.66C24.0402 23.5 23.5402 23.66 23.3002 24.1L19.4802 30.74C19.2402 31.16 19.3202 31.68 19.7202 31.96L23.7802 35.12C23.6802 35.72 23.6002 36.38 23.6002 37C23.6002 37.62 23.6402 38.28 23.7402 38.88L19.6802 42.0401C19.3202 42.3201 19.2202 42.86 19.4402 43.26L23.2802 49.9001C23.5202 50.3401 24.0202 50.48 24.4602 50.34L29.2402 48.42C30.2402 49.18 31.3002 49.82 32.4802 50.3L33.2002 55.3801C33.3002 55.8601 33.6802 56.2001 34.1602 56.2001H41.8402C42.3202 56.2001 42.7202 55.8601 42.7802 55.3801L43.5002 50.3C44.6802 49.82 45.7602 49.18 46.7402 48.42L51.5202 50.34C51.9602 50.5 52.4602 50.3401 52.7002 49.9001L56.5402 43.26C56.7802 42.82 56.6802 42.3201 56.3002 42.0401L52.2802 38.88ZM38.0002 44.2001C34.0402 44.2001 30.8002 40.96 30.8002 37C30.8002 33.04 34.0402 29.8 38.0002 29.8C41.9602 29.8 45.2002 33.04 45.2002 37C45.2002 40.96 41.9602 44.2001 38.0002 44.2001Z" fill="white"/>
</svg>
