<svg width="35" height="35" viewBox="0 0 35 35" fill="none" xmlns="http://www.w3.org/2000/svg">
<path d="M11.666 27.6037C13.4396 28.6276 15.4514 29.1667 17.4993 29.1667C19.5473 29.1667 21.5591 28.6276 23.3327 27.6037C25.1062 26.5797 26.579 25.1069 27.603 23.3334C28.6269 21.5598 29.166 19.548 29.166 17.5C29.166 15.4521 28.6269 13.4403 27.603 11.6667C26.579 9.89315 25.1062 8.42038 23.3327 7.39641C21.5591 6.37245 19.5473 5.83337 17.4993 5.83337C15.4514 5.83337 13.4396 6.37245 11.666 7.39641" stroke="black" stroke-opacity="0.67" stroke-width="2"/>
<path d="M2.91602 17.5L2.13515 16.8753L1.63539 17.5L2.13515 18.1247L2.91602 17.5ZM16.041 18.5C16.5933 18.5 17.041 18.0523 17.041 17.5C17.041 16.9478 16.5933 16.5 16.041 16.5V18.5ZM7.96848 9.58368L2.13515 16.8753L3.69688 18.1247L9.53022 10.8331L7.96848 9.58368ZM2.13515 18.1247L7.96848 25.4164L9.53022 24.167L3.69688 16.8753L2.13515 18.1247ZM2.91602 18.5H16.041V16.5H2.91602V18.5Z" fill="black" fill-opacity="0.67"/>
</svg>
